<?xml version="1.0" encoding="utf-8"?>
<!-- Generator: Adobe Illustrator 27.5.0, SVG Export Plug-In . SVG Version: 6.00 Build 0)  -->
<svg version="1.1" xmlns="http://www.w3.org/2000/svg" xmlns:xlink="http://www.w3.org/1999/xlink" x="0px" y="0px"
	 viewBox="0 0 500 500" style="enable-background:new 0 0 500 500;" xml:space="preserve">
<g id="BACKGROUND">
	<rect x="0" style="fill:#EBD0A9;" width="500" height="500"/>
</g>
<g id="OBJECTS">
	<g style="display:none;">
		<g style="display:inline;">
			<line style="fill:none;stroke:#FF5C5C;stroke-miterlimit:10;" x1="39.11" y1="0" x2="39.11" y2="500"/>
			<line style="fill:none;stroke:#FF5C5C;stroke-miterlimit:10;" x1="77.453" y1="0" x2="77.453" y2="500"/>
			<line style="fill:none;stroke:#FF5C5C;stroke-miterlimit:10;" x1="115.797" y1="0" x2="115.797" y2="500"/>
			<line style="fill:none;stroke:#FF5C5C;stroke-miterlimit:10;" x1="154.141" y1="0" x2="154.141" y2="500"/>
			<line style="fill:none;stroke:#FF5C5C;stroke-miterlimit:10;" x1="192.484" y1="0" x2="192.484" y2="500"/>
			<line style="fill:none;stroke:#FF5C5C;stroke-miterlimit:10;" x1="230.828" y1="0" x2="230.828" y2="500"/>
			<line style="fill:none;stroke:#FF5C5C;stroke-miterlimit:10;" x1="269.172" y1="0" x2="269.172" y2="500"/>
			<line style="fill:none;stroke:#FF5C5C;stroke-miterlimit:10;" x1="307.516" y1="0" x2="307.516" y2="500"/>
			<line style="fill:none;stroke:#FF5C5C;stroke-miterlimit:10;" x1="345.859" y1="0" x2="345.859" y2="500"/>
			<line style="fill:none;stroke:#FF5C5C;stroke-miterlimit:10;" x1="384.203" y1="0" x2="384.203" y2="500"/>
			<line style="fill:none;stroke:#FF5C5C;stroke-miterlimit:10;" x1="422.547" y1="0" x2="422.547" y2="500"/>
			<line style="fill:none;stroke:#FF5C5C;stroke-miterlimit:10;" x1="460.89" y1="0" x2="460.89" y2="500"/>
		</g>
		<g style="display:inline;">
			<line style="fill:none;stroke:#FF5C5C;stroke-miterlimit:10;" x1="500" y1="39.11" x2="0" y2="39.11"/>
			<line style="fill:none;stroke:#FF5C5C;stroke-miterlimit:10;" x1="500" y1="77.453" x2="0" y2="77.453"/>
			<line style="fill:none;stroke:#FF5C5C;stroke-miterlimit:10;" x1="500" y1="115.797" x2="0" y2="115.797"/>
			<line style="fill:none;stroke:#FF5C5C;stroke-miterlimit:10;" x1="500" y1="154.141" x2="0" y2="154.141"/>
			<line style="fill:none;stroke:#FF5C5C;stroke-miterlimit:10;" x1="500" y1="192.484" x2="0" y2="192.484"/>
			<line style="fill:none;stroke:#FF5C5C;stroke-miterlimit:10;" x1="500" y1="230.828" x2="0" y2="230.828"/>
			<line style="fill:none;stroke:#FF5C5C;stroke-miterlimit:10;" x1="500" y1="269.172" x2="0" y2="269.172"/>
			<line style="fill:none;stroke:#FF5C5C;stroke-miterlimit:10;" x1="500" y1="307.516" x2="0" y2="307.516"/>
			<line style="fill:none;stroke:#FF5C5C;stroke-miterlimit:10;" x1="500" y1="345.859" x2="0" y2="345.859"/>
			<line style="fill:none;stroke:#FF5C5C;stroke-miterlimit:10;" x1="500" y1="384.203" x2="0" y2="384.203"/>
			<line style="fill:none;stroke:#FF5C5C;stroke-miterlimit:10;" x1="500" y1="422.547" x2="0" y2="422.547"/>
			<line style="fill:none;stroke:#FF5C5C;stroke-miterlimit:10;" x1="500" y1="460.89" x2="0" y2="460.89"/>
		</g>
	</g>
	<g>
		<g>
			<path style="fill:#FFFFFF;" d="M446.113,257.908H337.85V120.38h74.433c7.876,0,15.097,4.385,18.729,11.374l15.101,29.057V257.908
				z"/>
			<g>
				<g>
					<path style="fill:#FFEED4;" d="M398.59,161.365h-46.422c-1.576,0-2.854-1.278-2.854-2.854v0c0-1.576,1.278-2.854,2.854-2.854
						h46.422c1.576,0,2.854,1.278,2.854,2.854v0C401.444,160.087,400.167,161.365,398.59,161.365z"/>
					<path style="fill:#FFEED4;" d="M433.716,169.57h-83.468c-0.516,0-0.934-0.418-0.934-0.934v-0.122
						c0-0.516,0.418-0.934,0.934-0.934h83.468c0.516,0,0.934,0.418,0.934,0.934v0.122C434.65,169.151,434.232,169.57,433.716,169.57
						z"/>
					<path style="fill:#FFEED4;" d="M433.716,177.4h-83.468c-0.516,0-0.934-0.418-0.934-0.934v-0.122
						c0-0.516,0.418-0.934,0.934-0.934h83.468c0.516,0,0.934,0.418,0.934,0.934v0.122C434.65,176.982,434.232,177.4,433.716,177.4z"
						/>
					<path style="fill:#FFEED4;" d="M433.716,185.231h-83.468c-0.516,0-0.934-0.418-0.934-0.934v-0.122
						c0-0.516,0.418-0.934,0.934-0.934h83.468c0.516,0,0.934,0.418,0.934,0.934v0.122
						C434.65,184.813,434.232,185.231,433.716,185.231z"/>
					<path style="fill:#FFEED4;" d="M383.934,193.062h-33.686c-0.516,0-0.934-0.418-0.934-0.934v-0.122
						c0-0.516,0.418-0.934,0.934-0.934h33.686c0.516,0,0.934,0.418,0.934,0.934v0.122
						C384.868,192.643,384.45,193.062,383.934,193.062z"/>
				</g>
				<g>
					<path style="fill:#FFEED4;" d="M398.59,208.018h-46.422c-1.576,0-2.854-1.278-2.854-2.854l0,0c0-1.576,1.278-2.854,2.854-2.854
						h46.422c1.576,0,2.854,1.278,2.854,2.854l0,0C401.444,206.74,400.167,208.018,398.59,208.018z"/>
					<path style="fill:#FFEED4;" d="M433.716,216.223h-83.468c-0.516,0-0.934-0.418-0.934-0.934v-0.122
						c0-0.516,0.418-0.934,0.934-0.934h83.468c0.516,0,0.934,0.418,0.934,0.934v0.122
						C434.65,215.805,434.232,216.223,433.716,216.223z"/>
					<path style="fill:#FFEED4;" d="M433.716,224.054h-83.468c-0.516,0-0.934-0.418-0.934-0.934v-0.122
						c0-0.516,0.418-0.934,0.934-0.934h83.468c0.516,0,0.934,0.418,0.934,0.934v0.122
						C434.65,223.635,434.232,224.054,433.716,224.054z"/>
					<path style="fill:#FFEED4;" d="M433.716,231.884h-83.468c-0.516,0-0.934-0.418-0.934-0.934v-0.122
						c0-0.516,0.418-0.934,0.934-0.934h83.468c0.516,0,0.934,0.418,0.934,0.934v0.122
						C434.65,231.466,434.232,231.884,433.716,231.884z"/>
					<path style="fill:#FFEED4;" d="M383.934,239.715h-33.686c-0.516,0-0.934-0.418-0.934-0.934v-0.122
						c0-0.516,0.418-0.934,0.934-0.934h33.686c0.516,0,0.934,0.418,0.934,0.934v0.122
						C384.868,239.297,384.45,239.715,383.934,239.715z"/>
				</g>
			</g>
			<g>
				<path style="fill:#3B6E56;" d="M309.741,145.475c-1.525-1.613-3.214-2.492-3.772-1.964l-19.51,18.451
					c-0.558,0.528,0.226,2.263,1.751,3.876c1.525,1.613,3.214,2.492,3.772,1.964l19.51-18.451
					C312.05,148.823,311.266,147.088,309.741,145.475z"/>
				<path style="fill:#3B4C73;" d="M326.036,125.928l-19.583,18.52c-0.417,0.395,0.169,1.692,1.309,2.898
					c1.14,1.206,2.403,1.863,2.82,1.469l19.583-18.52L326.036,125.928z"/>
				<path style="fill:#26314A;" d="M318.031,133.499c1.756,1.236,3.633,2.22,5.575,2.999l6.56-6.204l-4.129-4.367L318.031,133.499z"
					/>
				<circle style="fill:#3B4C73;" cx="344.548" cy="112.557" r="27.559"/>
				<circle style="fill:#EBD0A9;" cx="344.548" cy="112.557" r="23.549"/>
				<g>
					<path style="fill:#FFFFFF;" d="M331.438,100.226c-0.406,0-0.811-0.161-1.112-0.479c-0.581-0.614-0.554-1.584,0.06-2.164
						c7.575-7.164,19.321-7.546,27.327-0.887c0.65,0.541,0.738,1.506,0.198,2.156c-0.54,0.649-1.506,0.738-2.156,0.198
						c-6.813-5.669-16.814-5.342-23.264,0.757C332.194,100.087,331.816,100.226,331.438,100.226z"/>
				</g>
				<g>
					<path style="fill:#FFFFFF;" d="M360.701,103.925c-0.508,0-1.006-0.253-1.297-0.715c-0.289-0.46-0.609-0.916-0.947-1.355
						c-0.517-0.669-0.393-1.631,0.276-2.147c0.67-0.516,1.632-0.393,2.147,0.277c0.399,0.516,0.774,1.053,1.115,1.594
						c0.451,0.715,0.236,1.661-0.479,2.111C361.263,103.849,360.98,103.925,360.701,103.925z"/>
				</g>
			</g>
			<path style="fill:#B5915F;" d="M412.283,120.38c9.816,0,16.915,8.492,7.458,21.316l26.373,19.116l-15.101-29.057
				C427.38,124.765,420.159,120.38,412.283,120.38z"/>
			<path style="fill:#FFFFFF;" d="M333.118,114.465v11.599c0,2.455,1.471,4.693,3.748,5.609c7.235,2.907,15.809,1.57,21.845-4.139
				c2.697-2.551,4.543-5.658,5.543-8.974c0.614-2.038-0.911-4.094-3.04-4.094H333.118z"/>
		</g>
		<g>
			<g>
				<path style="fill:#828F60;" d="M256.716,371.143h165.96c11.708,0,21.2,9.901,21.2,22.115v10.425
					c0,12.214-9.491,22.115-21.2,22.115h-165.96V371.143z"/>
				<path style="fill:#8FC7B2;" d="M440.277,403.683v-10.425c0-12.214-9.491-22.115-21.2-22.115h3.598
					c11.708,0,21.2,9.901,21.2,22.115v10.425c0,12.214-9.491,22.115-21.2,22.115h-3.598
					C430.786,425.797,440.277,415.896,440.277,403.683z"/>
				<path style="fill:#8FC7B2;" d="M432.13,403.683v-10.425c0-12.214-9.491-22.115-21.2-22.115h3.598
					c11.708,0,21.2,9.901,21.2,22.115v10.425c0,12.214-9.491,22.115-21.2,22.115h-3.598
					C422.638,425.797,432.13,415.896,432.13,403.683z"/>
				<path style="fill:#8FC7B2;" d="M297.159,403.683v-10.425c0-12.214-9.491-22.115-21.2-22.115h3.598
					c11.708,0,21.2,9.901,21.2,22.115v10.425c0,12.214-9.491,22.115-21.2,22.115h-3.598
					C287.668,425.797,297.159,415.896,297.159,403.683z"/>
				<path style="fill:#8FC7B2;" d="M289.012,403.683v-10.425c0-12.214-9.491-22.115-21.2-22.115h3.598
					c11.708,0,21.2,9.901,21.2,22.115v10.425c0,12.214-9.491,22.115-21.2,22.115h-3.598
					C279.52,425.797,289.012,415.896,289.012,403.683z"/>
				<g>
					<path style="fill:#828F60;" d="M160.446,421.907v-46.874h-7.635v-3.891h114.348c11.708,0,21.2,9.901,21.2,22.115v10.425
						c0,12.214-9.491,22.115-21.2,22.115H152.811v-3.891H160.446z"/>
					<path style="fill:#FFFFFF;" d="M155.362,421.907c-0.021-0.108-0.039-0.216-0.039-0.326c0-0.559,0.278-1.09,0.779-1.571
						c1.064-1.021,1.064-2.44,0-3.462c-0.501-0.481-0.779-1.012-0.779-1.571s0.278-1.09,0.779-1.571c1.064-1.021,1.064-2.44,0-3.462
						c-0.501-0.481-0.779-1.012-0.779-1.571c0-0.559,0.278-1.09,0.779-1.571c1.064-1.021,1.064-2.44,0-3.462
						c-0.501-0.481-0.779-1.012-0.779-1.571c0-0.559,0.278-1.09,0.779-1.571c1.064-1.021,1.064-2.44,0-3.462
						c-0.501-0.481-0.779-1.012-0.779-1.571s0.278-1.09,0.779-1.571c1.064-1.021,1.064-2.44,0-3.462
						c-0.501-0.481-0.779-1.012-0.779-1.571s0.278-1.09,0.779-1.571c1.064-1.021,1.064-2.44,0-3.462
						c-0.501-0.481-0.779-1.012-0.779-1.571c0-0.559,0.278-1.09,0.779-1.571c1.064-1.021,1.064-2.44,0-3.462
						c-0.501-0.481-0.779-1.012-0.779-1.571c0-0.11,0.018-0.218,0.039-0.326h112.076c9.589,0,17.363,8.109,17.363,18.112v10.649
						c0,10.003-7.773,18.112-17.363,18.112H155.362z"/>
					<g>
						<path style="fill:#EBD0A9;" d="M284.535,406.847H156.063c0.014-0.014,0.024-0.029,0.038-0.043
							c0.415-0.399,0.663-0.858,0.755-1.33h127.863C284.678,405.938,284.609,406.393,284.535,406.847z"/>
						<path style="fill:#EBD0A9;" d="M284.8,403.002H155.795c-0.304-0.387-0.472-0.8-0.472-1.23c0-0.048,0.014-0.095,0.018-0.143
							H284.8V403.002z"/>
						<path style="fill:#EBD0A9;" d="M283.971,387.621H155.606c0.127-0.216,0.287-0.427,0.495-0.627
							c0.241-0.231,0.419-0.484,0.551-0.747h126.837C283.667,386.697,283.828,387.155,283.971,387.621z"/>
						<path style="fill:#EBD0A9;" d="M284.8,395.312H155.34c-0.004-0.048-0.018-0.095-0.018-0.143c0-0.43,0.168-0.843,0.472-1.23
							H284.8V395.312z"/>
						<path style="fill:#EBD0A9;" d="M283.971,409.319c-0.143,0.466-0.304,0.924-0.482,1.373H156.653
							c-0.132-0.262-0.31-0.516-0.551-0.747c-0.208-0.2-0.368-0.411-0.495-0.627H283.971z"/>
						<path style="fill:#EBD0A9;" d="M281.393,382.403c0.314,0.443,0.608,0.901,0.882,1.373H156.314
							c-0.069-0.082-0.132-0.166-0.213-0.243c-0.367-0.352-0.611-0.732-0.717-1.13H281.393z"/>
						<path style="fill:#EBD0A9;" d="M156.889,378.558h120.81c0.555,0.426,1.085,0.883,1.587,1.373h-122.8
							C156.779,379.5,156.912,379.028,156.889,378.558z"/>
						<path style="fill:#EBD0A9;" d="M284.535,390.093c0.074,0.454,0.143,0.909,0.184,1.373H156.856
							c-0.091-0.472-0.339-0.932-0.754-1.33c-0.015-0.014-0.025-0.029-0.039-0.043H284.535z"/>
						<path style="fill:#EBD0A9;" d="M156.889,418.382c0.023-0.47-0.109-0.942-0.403-1.373h122.8
							c-0.502,0.49-1.032,0.947-1.587,1.373H156.889z"/>
						<path style="fill:#EBD0A9;" d="M281.393,414.537H155.384c0.106-0.398,0.35-0.777,0.717-1.13
							c0.081-0.078,0.144-0.162,0.213-0.243h125.962C282.001,413.636,281.707,414.094,281.393,414.537z"/>
						<path style="fill:#EBD0A9;" d="M156.772,397.783H284.8v1.373H156.772C156.925,398.705,156.925,398.235,156.772,397.783z"/>
					</g>
				</g>
				<path style="fill:#8FC7B2;" d="M312.639,390.674l-8.624,5.953c-1.29,0.89-1.29,2.796,0,3.687l8.624,5.953
					c0.766,0.529,1.779,0.529,2.545,0l8.624-5.953c1.29-0.89,1.29-2.796,0-3.687l-8.624-5.953
					C314.418,390.145,313.405,390.145,312.639,390.674z"/>
				<path style="fill:#8FC7B2;" d="M417.805,390.674l-8.624,5.953c-1.29,0.89-1.29,2.796,0,3.687l8.624,5.953
					c0.766,0.529,1.779,0.529,2.545,0l8.624-5.953c1.29-0.89,1.29-2.796,0-3.687l-8.624-5.953
					C419.584,390.145,418.571,390.145,417.805,390.674z"/>
				<path style="fill:none;stroke:#8FC7B2;stroke-width:2.2871;stroke-miterlimit:10;" d="M394.094,408.083h-55.595
					c-4.068,0-7.366-3.298-7.366-7.366v-4.493c0-4.068,3.298-7.366,7.366-7.366h55.595c4.068,0,7.366,3.298,7.366,7.366v4.493
					C401.46,404.785,398.162,408.083,394.094,408.083z"/>
			</g>
			<g>
				<path style="fill:#B5915F;" d="M282.158,318.75H156.43c-11.708,0-21.2,9.491-21.2,21.2v9.994c0,11.708,9.491,21.2,21.2,21.2
					h125.728V318.75z"/>
				<path style="fill:#26314A;" d="M380.256,318.75H254.528c-11.708,0-21.2,9.491-21.2,21.2v9.994c0,11.708,9.491,21.2,21.2,21.2
					h125.728V318.75z"/>
				<path style="fill:#26314A;" d="M150.384,349.943v-9.994c0-11.708,9.491-21.2,21.2-21.2H156.43c-11.708,0-21.2,9.491-21.2,21.2
					v9.994c0,11.708,9.491,21.2,21.2,21.2h15.154C159.875,371.143,150.384,361.651,150.384,349.943z"/>
				<path style="fill:#CFAB7A;" d="M402.747,367.413v-44.934h7.635v-3.73H269.726c-11.708,0-21.2,9.491-21.2,21.2v9.994
					c0,11.708,9.491,21.2,21.2,21.2h140.656v-3.73H402.747z"/>
				<path style="fill:#FFFFFF;" d="M407.832,367.413c0.021-0.103,0.039-0.207,0.039-0.312c0-0.536-0.278-1.045-0.779-1.506
					c-1.064-0.979-1.064-2.339,0-3.318c0.501-0.461,0.779-0.97,0.779-1.506s-0.278-1.045-0.779-1.506
					c-1.064-0.979-1.064-2.339,0-3.318c0.501-0.461,0.779-0.97,0.779-1.506c0-0.536-0.278-1.045-0.779-1.506
					c-1.064-0.979-1.064-2.339,0-3.318c0.501-0.461,0.779-0.97,0.779-1.506c0-0.536-0.278-1.045-0.779-1.506
					c-1.064-0.979-1.064-2.339,0-3.318c0.501-0.461,0.779-0.97,0.779-1.506c0-0.536-0.278-1.045-0.779-1.506
					c-1.064-0.979-1.064-2.339,0-3.318c0.501-0.461,0.779-0.97,0.779-1.506s-0.278-1.045-0.779-1.506
					c-1.064-0.979-1.064-2.339,0-3.318c0.501-0.461,0.779-0.97,0.779-1.506c0-0.536-0.278-1.045-0.779-1.506
					c-1.064-0.979-1.064-2.339,0-3.318c0.501-0.461,0.779-0.97,0.779-1.506c0-0.105-0.018-0.209-0.039-0.312H269.448
					c-9.589,0-17.363,7.773-17.363,17.363v10.209c0,9.589,7.773,17.363,17.363,17.363H407.832z"/>
				<g>
					<path style="fill:#EBD0A9;" d="M252.35,352.976h154.78c-0.014-0.013-0.024-0.028-0.038-0.041
						c-0.415-0.382-0.663-0.823-0.755-1.275H252.166C252.207,352.105,252.276,352.541,252.35,352.976z"/>
					<path style="fill:#EBD0A9;" d="M252.085,349.29h155.313c0.304-0.371,0.472-0.767,0.472-1.179c0-0.046-0.014-0.091-0.018-0.137
						H252.085V349.29z"/>
					<path style="fill:#EBD0A9;" d="M252.914,334.546h154.673c-0.127-0.207-0.287-0.409-0.495-0.601
						c-0.241-0.221-0.419-0.464-0.551-0.716H253.396C253.218,333.66,253.057,334.099,252.914,334.546z"/>
					<path style="fill:#EBD0A9;" d="M252.085,341.918h155.768c0.004-0.046,0.018-0.091,0.018-0.137c0-0.412-0.168-0.808-0.472-1.179
						H252.085V341.918z"/>
					<path style="fill:#EBD0A9;" d="M252.914,355.346c0.143,0.447,0.304,0.886,0.482,1.316h153.145
						c0.132-0.252,0.31-0.494,0.551-0.716c0.208-0.192,0.368-0.394,0.495-0.601H252.914z"/>
					<path style="fill:#EBD0A9;" d="M255.492,329.544c-0.314,0.425-0.608,0.863-0.882,1.316h152.27
						c0.069-0.079,0.132-0.159,0.213-0.233c0.367-0.338,0.611-0.702,0.717-1.083H255.492z"/>
					<path style="fill:#EBD0A9;" d="M406.305,325.858H259.187c-0.555,0.408-1.085,0.846-1.587,1.316h149.108
						C406.414,326.761,406.282,326.309,406.305,325.858z"/>
					<path style="fill:#EBD0A9;" d="M252.35,336.916c-0.074,0.435-0.143,0.871-0.184,1.316h154.171
						c0.091-0.453,0.339-0.893,0.754-1.275c0.015-0.013,0.025-0.028,0.039-0.041H252.35z"/>
					<path style="fill:#EBD0A9;" d="M406.305,364.034c-0.023-0.451,0.109-0.903,0.403-1.316H257.6
						c0.502,0.47,1.032,0.908,1.587,1.316H406.305z"/>
					<path style="fill:#EBD0A9;" d="M255.492,360.348h152.317c-0.106-0.381-0.35-0.745-0.717-1.083
						c-0.081-0.074-0.144-0.155-0.213-0.233h-152.27C254.884,359.485,255.178,359.923,255.492,360.348z"/>
					<path style="fill:#EBD0A9;" d="M406.421,344.288H252.085v1.316h154.336C406.268,345.171,406.268,344.721,406.421,344.288z"/>
				</g>
				<path style="fill:#EBD0A9;" d="M296.892,352.161c-5.84,0-7.299-2.087-7.289-5.843c0.01-3.756-0.619-7.303-4.636-8.086h-24.114
					c9.298,5.999,2.788,13.955,5.463,20.919c1.964,5.112,8.637,2.713,13.713,5.801c1.126,0.685,1.953,1.508,2.555,2.461h27.437
					C310.608,359.44,307.276,352.161,296.892,352.161z"/>
				<path style="fill:#EBD0A9;" d="M220.546,352.976h-57.427c-2.898,0-5.248-2.35-5.248-5.248v-5.564
					c0-2.898,2.35-5.248,5.248-5.248h57.427c2.898,0,5.248,2.35,5.248,5.248v5.564C225.793,350.627,223.444,352.976,220.546,352.976
					z"/>
				<g>
					
						<line style="fill:none;stroke:#EBD0A9;stroke-width:1.1435;stroke-linecap:round;stroke-linejoin:round;stroke-miterlimit:10;" x1="160.13" y1="325.215" x2="234.799" y2="325.215"/>
					
						<line style="fill:none;stroke:#EBD0A9;stroke-width:1.1435;stroke-linecap:round;stroke-linejoin:round;stroke-miterlimit:10;" x1="160.13" y1="364.677" x2="234.799" y2="364.677"/>
				</g>
			</g>
			
				<line style="fill:none;stroke:#26314A;stroke-width:1.1435;stroke-miterlimit:10;" x1="405.161" y1="371.424" x2="160.239" y2="371.424"/>
			<path style="fill:#3B4C73;" d="M260.854,338.232h24.114c4.258,0.718,5.981,3.971,7.129,7.416c1.148,3.445,3.25,5.359,9.091,5.359
				c13.109,0,18.564,10.641,18.564,19.77l-12.727-4.402c0,0-4.402,8.765-11.196,12.918c-0.478-8.478-1.531-13.722-7.559-16.554
				c-6.028-2.832-11.961-0.632-15.502-5.32C267.945,351.032,272.001,343.735,260.854,338.232z"/>
		</g>
		<g>
			<rect x="85.621" y="363.406" style="fill:#B5915F;" width="11.924" height="19.914"/>
			<path style="fill:#26314A;" d="M97.546,363.791c-2.149,0.235-4.327,0.34-6.526,0.288c-1.82-0.042-3.62-0.194-5.398-0.432v3.467
				c1.754,0.219,3.528,0.354,5.319,0.395c0.413,0.009,0.825,0.013,1.237,0.013c1.805,0,3.595-0.099,5.369-0.281V363.791z"/>
			<polygon style="fill:#26314A;" points="97.546,383.32 85.621,383.32 85.621,378.408 97.546,380.812 			"/>
			<path style="fill:#B5915F;" d="M98.737,383.32H84.43c-2.134,0-3.992,1.458-4.499,3.53l-3.674,14.999h30.653l-3.674-14.999
				C102.729,384.778,100.871,383.32,98.737,383.32z"/>
			<path style="fill:#B5915F;" d="M108.767,401.849H74.4c-3.028,0-5.707,1.96-6.623,4.846l-6.064,19.103h59.741l-6.064-19.103
				C114.474,403.809,111.795,401.849,108.767,401.849z"/>
			<polygon style="fill:#26314A;" points="76.257,401.849 106.91,401.849 106.46,400.013 77.448,396.988 			"/>
			<g>
				<g>
					
						<rect x="91.493" y="262.612" transform="matrix(0.9404 -0.3401 0.3401 0.9404 -100.8072 49.9294)" style="fill:#B5915F;" width="1.062" height="99.828"/>
				</g>
				<g>
					<circle style="fill:#8FC7B2;" cx="92.146" cy="312.861" r="44.46"/>
					<g>
						<path style="fill:#828F60;" d="M83.562,271.258c0.382,0.689,0.679,1.43,1.155,2.058c0.085,0.113,0.181,0.225,0.309,0.284
							c0.152,0.071,0.329,0.058,0.494,0.032c1.206-0.184,2.265-0.943,3.052-1.876s1.337-2.038,1.88-3.131
							c-0.316-0.049-0.633-0.089-0.949-0.136c-2.422,0.143-4.834,0.479-7.212,1.017C82.778,270.041,83.211,270.625,83.562,271.258z"
							/>
						<path style="fill:#828F60;" d="M117.402,276.263c-0.881,0.302-1.716,0.736-2.459,1.298c-0.261,0.198-0.551,0.423-0.877,0.385
							c-0.403-0.046-0.644-0.463-0.98-0.69c-0.726-0.49-1.967-0.151-2.368-0.929c-0.212-0.413-0.032-0.911,0.163-1.332
							c0.311-0.672,0.661-1.327,1.039-1.964c-0.485-0.241-0.976-0.464-1.468-0.686c-0.31,0.58-0.606,1.167-0.875,1.767
							c-0.438,0.978-0.842,2.012-1.61,2.76c-0.544,0.529-1.238,0.881-1.79,1.402c-0.552,0.521-0.957,1.324-0.683,2.032
							c0.112,0.29,0.325,0.527,0.485,0.793c0.16,0.266,0.269,0.599,0.148,0.885c-0.121,0.286-0.931,0.661-1.03,0.367
							c-0.216-0.644-1.031-0.882-1.704-0.783c-0.672,0.099-1.292,0.431-1.963,0.537c-0.671,0.106-1.487-0.114-1.722-0.752
							c-0.446,1.707-1.195,3.335-2.201,4.785c-0.725,1.043-1.629,2.154-1.469,3.414c0.129,1.012,0.939,1.862,0.974,2.881
							c0.032,0.951-0.625,1.868-0.421,2.797c0.122,0.557,0.544,1.031,0.58,1.601c0.014,0.215-0.029,0.438,0.04,0.643
							c0.047,0.138,0.142,0.255,0.241,0.362c1.732,1.871,5.204,1.572,6.569,3.726c1.178-0.4,2.489-0.921,2.956-2.074
							c0.093-0.23,0.155-0.489,0.338-0.656c0.356-0.323,0.941-0.128,1.381-0.322c0.966-0.424,0.533-2.229,1.507-2.634
							c0.17-0.071,0.359-0.082,0.53-0.149c0.414-0.161,0.635-0.597,0.886-0.963c0.35-0.511,0.798-0.98,1.339-1.282
							c0.047-0.204,0.094-0.408,0.141-0.611c0.436-0.318,1.116-0.229,1.454,0.192c0.269,0.335,0.367,0.855,0.772,0.998
							c0.212,0.075,0.445,0.016,0.666-0.023c1.358-0.236,2.828,0.416,3.563,1.582c0.142,0.225,0.265,0.473,0.477,0.633
							c0.223,0.169,0.513,0.215,0.784,0.284c0.867,0.22,1.658,0.729,2.218,1.426c0.498,0.621,0.822,1.39,1.427,1.908
							c1.052,0.901,2.615,0.793,3.91,1.286c0.777,0.296,1.451,0.809,2.191,1.188c0.74,0.379,1.62,0.623,2.4,0.335
							c0.391-0.145,0.728-0.413,1.121-0.552c0.366-0.13,0.766-0.143,1.145-0.223c-1.819-7.179-5.447-14.004-10.926-19.743
							C122.167,279.923,119.852,277.957,117.402,276.263z"/>
						<path style="fill:#828F60;" d="M109.972,328.725c-0.16-0.251-0.42-0.417-0.652-0.603c-0.93-0.747-1.468-1.957-1.398-3.148
							c0.08-1.384,0.916-2.765,0.48-4.081c-0.627-1.893-3.593-2.658-3.456-4.648c0.021-0.306,0.123-0.61,0.083-0.914
							c-0.104-0.783-1.102-1.142-1.869-0.953c-0.767,0.189-1.393,0.726-2.096,1.085c-0.496,0.254-1.065,0.444-1.388,0.898
							c-0.188,0.265-0.271,0.596-0.48,0.844c-0.633,0.757-1.927,0.334-2.773,0.841c-0.369,0.221-0.663,0.623-1.092,0.652
							c-0.487,0.033-0.856-0.431-1.322-0.577c-1.543-0.484-2.388,2.261-3.989,2.033c-0.689-0.098-1.388-0.197-2.079-0.107
							c-0.69,0.09-1.383,0.393-1.792,0.956c-0.171,0.235-0.286,0.505-0.433,0.755c-0.472,0.806-1.289,1.401-2.2,1.605
							c-0.189,0.042-0.389,0.071-0.55,0.179c-0.189,0.127-0.295,0.344-0.372,0.558c-0.348,0.967-0.145,2.2,0.369,3.09
							c-0.759-0.071-1.543,0.203-2.092,0.731c-0.306,0.294-0.552,0.669-0.934,0.856c-0.714,0.35-1.545-0.095-2.215-0.522
							c-0.21-0.134-0.459-0.272-0.694-0.191c-0.177,0.061-0.289,0.23-0.398,0.382c-0.308,0.429-0.832,0.836-1.322,0.638
							c-0.723-0.292-0.481-1.412-0.911-2.062c-0.377,0.373-0.771,0.777-0.883,1.295c-0.066,0.305-0.026,0.622-0.036,0.934
							c-0.043,1.352-1.374,2.652-2.679,2.293c-0.862-0.237-1.416-1.045-1.947-1.764c-0.487-0.661-1.032-1.324-1.196-2.128
							c-0.165-0.804,0.159-1.842,0.959-2.025c0.308-0.492,0.778-0.879,1.32-1.086c-0.497-0.46-0.344-1.351,0.172-1.79
							c0.516-0.439,1.255-0.509,1.927-0.421c0.765,0.101,1.505,0.383,2.142,0.818c0.277,0.189,0.691,0.392,0.897,0.127
							c0.154-0.198,0.024-0.486-0.122-0.689c-0.444-0.615-1.039-1.121-1.718-1.461c-0.438-0.219-0.925-0.38-1.26-0.738
							c-0.925-0.986-0.12-2.615-0.441-3.928c-0.155-0.634-0.57-1.165-0.893-1.732c-0.322-0.567-0.559-1.256-0.321-1.864
							c0.145-0.372,0.448-0.657,0.666-0.991c0.219-0.334,0.347-0.793,0.12-1.122c-0.141-0.204-0.384-0.308-0.57-0.472
							c-0.406-0.36-0.482-1-0.274-1.5c0.208-0.501,0.653-0.873,1.139-1.113c0.275-0.136,0.604-0.278,0.673-0.576
							c0.034-0.15-0.009-0.305-0.04-0.456c-0.149-0.726,0.006-1.464,0.413-2.084c-0.73-0.087-1.281,0.812-2.015,0.779
							c-0.432-0.019-0.773-0.356-1.07-0.67c-0.153,0.681-0.59,1.294-1.184,1.661c-0.717-1.07-0.357-2.707,0.743-3.376
							c0.179-0.109,0.379-0.2,0.501-0.37c0.333-0.461-0.107-1.136,0.099-1.665c0.234-0.598,1.17-0.583,1.611-0.116
							c0.441,0.467,0.519,1.158,0.574,1.798c0.639-0.538,1.458-0.859,2.292-0.901c-0.453-0.719-1.221-1.168-1.959-1.589
							c-0.195-0.111-0.39-0.222-0.585-0.334c-0.376-0.214-0.752-0.429-1.138-0.625c-0.838-0.425-1.764-0.767-2.698-0.664
							c-0.388,0.043-0.768,0.162-1.158,0.153c-0.39-0.009-0.814-0.188-0.953-0.553c-0.075-0.197-0.068-0.444-0.231-0.579
							c-0.098-0.081-0.233-0.098-0.361-0.105c-0.69-0.04-1.389,0.093-2.015,0.384c0.493,0.169,0.917,0.615,0.931,1.136
							c0.014,0.521-0.495,1.03-1.002,0.909c-0.826-0.198-0.86-1.609-1.69-1.791c-0.376-0.083-0.745,0.14-1.066,0.353
							c-0.447,0.296-0.894,0.593-1.342,0.889c-0.467,0.309-0.993,0.74-0.921,1.296c0.076,0.582,0.757,0.857,1.337,0.942
							c0.581,0.085,1.25,0.139,1.597,0.612c0.443,0.605,0.063,1.436-0.045,2.178c-0.091,0.628,0.037,1.285,0.358,1.832
							c0.078,0.133,0.17,0.27,0.17,0.425c0,0.235-0.208,0.41-0.397,0.55c-0.557,0.413-1.115,0.826-1.672,1.239
							c-0.484,0.358-1.006,0.731-1.607,0.761c-0.649,0.032-1.269-0.346-1.916-0.294c-0.311,0.025-0.617,0.148-0.925,0.102
							c-0.626-0.093-0.935-0.798-1.103-1.408c-0.445-1.612-0.701-3.276-0.76-4.948c-0.026-0.739,0.419-1.567,0.916-2.115
							c0.388-0.046,1.428-0.175,1.428-0.175s0.636-0.716,0.203-1.057c-0.434-0.341-1.166,0.249-2.293-1.158
							c-1.127-1.407,0.026-1.104,0.216-2.149c0.19-1.045-0.406-1.556-1.004-1.956c-0.157,0.072-0.321,0.119-0.483,0.173
							c-5.588,12.034-5.525,26.081,0.292,38.099c0.908,0.257,1.745,0.658,2.359,1.364c0.142,0.164,0.28,0.348,0.482,0.427
							c0.142,0.055,0.3,0.05,0.453,0.041c1.266-0.078,2.558-0.415,3.782-0.083c1,0.271,1.827,0.958,2.759,1.41
							c0.932,0.451,2.155,0.623,2.924-0.07c-0.77-0.371-1.64-0.464-2.467-0.682c-0.827-0.218-1.676-0.615-2.086-1.366
							c-0.078-0.142-0.138-0.309-0.088-0.463c0.039-0.119,0.138-0.209,0.244-0.275c0.5-0.312,1.154-0.194,1.701,0.026
							c0.547,0.219,1.071,0.532,1.658,0.59c0.434,0.043,0.881-0.057,1.303,0.051c0.814,0.209,1.292,1.118,2.098,1.355
							c0.436,0.128,0.904,0.04,1.347-0.059c1.023-0.227,2.065-0.518,3.063-0.837c1.976-2.002,4.756-3.189,7.569-3.232
							c0.229-0.004,0.467-0.002,0.673-0.102c0.178-0.087,0.313-0.242,0.438-0.395c0.802-0.978,1.779-2.209,3.016-1.947
							c1.152,0.244,1.61,1.628,1.758,2.796c0.148,1.169,0.305,2.532,1.314,3.14c1.462,0.881,3.557-0.547,4.987,0.385
							c0.392,0.255,0.686,0.669,1.128,0.821c0.977,0.336,1.821-0.747,2.792-1.101c1.247-0.455,2.57,0.345,3.656,1.109
							c1.649,1.159,3.298,2.318,4.947,3.477c1.06,0.745,2.138,1.507,2.93,2.532c0.515,0.667,1.009,1.507,1.843,1.625
							c0.537,0.076,1.213-0.137,1.541,0.295c0.152,0.2,0.159,0.473,0.258,0.704c0.137,0.319,0.438,0.533,0.724,0.73
							c1.769,1.217,3.65,2.474,5.792,2.629c0.095-0.263,0.189-0.526,0.284-0.789c-0.27,0.105-0.54,0.211-0.809,0.316
							c-0.874-1.113-1.604-2.339-2.165-3.639c-0.642,0.483-1.739-0.189-1.6-0.98c0.028-0.158,0.093-0.32,0.047-0.473
							c-0.057-0.19-0.258-0.29-0.419-0.407c-0.5-0.364-0.687-1.101-0.421-1.659c-0.569,0.114-1.172,0.051-1.705-0.178
							c0.4-0.302,0.706-0.725,0.866-1.2c-0.466-0.025-0.889-0.401-0.97-0.86c-0.081-0.459,0.19-0.957,0.619-1.139
							c-0.447-0.438-0.91-0.902-1.092-1.5c-0.182-0.598,0.031-1.366,0.616-1.588c0.126-0.048,0.273-0.075,0.351-0.185
							c0.076-0.105,0.059-0.249,0.04-0.377c-0.151-0.983-0.301-1.966-0.451-2.95C110.165,329.24,110.12,328.958,109.972,328.725z"/>
						<path style="fill:#828F60;" d="M54.027,292.346c0.318,0.344,0.714,0.605,1.072,0.907c0.582-0.353,1.396-0.266,1.891,0.201
							c-0.477,1.271-0.691,2.64-0.625,3.995c0.295-0.402,0.85-0.519,1.348-0.493c0.498,0.025,0.991,0.159,1.489,0.13
							c1.163-0.069,2.072-0.988,2.86-1.846c0.32-0.349,0.658-0.856,0.397-1.25c-0.135-0.205-0.389-0.29-0.624-0.362
							c-0.582-0.178-1.164-0.357-1.746-0.535c-0.338-0.104-0.724-0.255-0.82-0.595c-0.083-0.293,0.102-0.603,0.343-0.789
							c0.241-0.186,0.536-0.287,0.799-0.441c0.816-0.478,1.266-1.509,1.062-2.433c-0.683,0.626-1.491,1.116-2.362,1.432
							c-0.196,0.071-0.402,0.134-0.609,0.115c-0.384-0.036-0.68-0.338-0.966-0.597c-0.539-0.488-1.573-1.252-2.504-1.398
							c-0.581,0.88-1.135,1.772-1.648,2.682C53.514,291.575,53.744,292.039,54.027,292.346z"/>
						<path style="fill:#828F60;" d="M68.154,280.412c0.258-1.091,0.821-2.089,1.476-2.999c0.237-0.33,0.492-0.659,0.61-1.048
							c0.202-0.663-0.029-1.356-0.361-1.983c-2.988,1.732-5.824,3.831-8.433,6.321c-1.298,1.24-2.494,2.545-3.61,3.896
							c2.265,0.672,4.346,1.879,5.983,3.594c0.294,0.308,0.581,0.635,0.951,0.847c0.305,0.174,0.651,0.26,0.993,0.344
							c1.219,0.299,2.438,0.599,3.657,0.898c0.235,0.058,0.473,0.116,0.715,0.104c0.91-0.042,1.468-0.985,1.856-1.809
							c0.103-0.217,0.208-0.449,0.183-0.688c-0.016-0.154-0.085-0.298-0.161-0.433c-0.851-1.501-2.658-2.27-3.5-3.776
							C67.964,282.701,67.895,281.503,68.154,280.412z"/>
						<path style="fill:#828F60;" d="M92.811,283.2c-0.122,0.409-0.37,0.766-0.568,1.144c-0.669,1.277-0.761,2.767-0.839,4.207
							c-0.007,0.13-0.013,0.268,0.05,0.383c0.077,0.14,0.236,0.21,0.384,0.27c0.468,0.191,0.935,0.382,1.403,0.573
							c0.237-0.355,0.411-0.747,0.585-1.137c0.558-1.256,1.124-2.541,1.247-3.91c0.121-1.348-0.194-2.714,0.003-4.053
							c0.03-0.202,0.073-0.408,0.189-0.577c0.152-0.222,0.405-0.348,0.642-0.475c0.88-0.47,1.686-1.077,2.382-1.791
							c0.7-0.719,1.331-1.578,2.27-1.933c0.857-0.324,1.815-0.165,2.724-0.282c1.636-0.211,3.014-1.296,4.214-2.428
							c0.492-0.464,0.976-0.97,1.389-1.516c-4.462-1.81-9.159-2.875-13.903-3.177c-0.636,1.104-1.516,2.113-2.012,3.288
							c-0.389,0.921-0.666,1.02-1.492,1.471c-0.794,0.433-1.208,1.134-1.601,1.926c-0.085,0.17-0.171,0.346-0.184,0.536
							c-0.047,0.668,0.792,1.146,0.758,1.814c-0.011,0.212-0.111,0.407-0.194,0.601c-0.272,0.631-0.388,1.316-0.503,1.994
							c-0.076,0.452-0.153,0.917-0.062,1.367c0.091,0.45,0.386,0.888,0.828,1.013c0.545-0.585,1.514-1.07,2.081-0.506
							C92.903,282.301,92.933,282.791,92.811,283.2z"/>
					</g>
				</g>
				<g>
					<path style="fill:#B5915F;" d="M92.177,364.843c-0.412,0-0.824-0.004-1.237-0.013c-13.881-0.323-26.806-6.031-36.394-16.074
						c-19.792-20.732-19.027-53.702,1.706-73.493c8.099-7.731,18.235-12.561,29.311-13.967l0.432,3.404
						c-10.344,1.312-19.81,5.823-27.375,13.045c-19.364,18.486-20.079,49.279-1.593,68.642c8.955,9.381,21.027,14.713,33.992,15.013
						c12.977,0.31,25.271-4.464,34.651-13.42l2.369,2.481C118.296,359.763,105.602,364.843,92.177,364.843z"/>
				</g>
			</g>
		</g>
		<path style="fill:#FFFFFF;" d="M212.684,162.052c-5.697,0.781-6.734,1.935-7.376,8.789c-0.024,0.257-0.4,0.257-0.424,0
			c-0.641-6.854-1.678-8.008-7.376-8.789c-0.245-0.034-0.245-0.388,0-0.422c5.697-0.781,6.734-1.935,7.376-8.789
			c0.024-0.257,0.4-0.257,0.424,0c0.641,6.854,1.678,8.008,7.376,8.789C212.93,161.664,212.93,162.019,212.684,162.052z"/>
		<path style="fill:#FFFFFF;" d="M400.134,95.366c-5.697,0.781-6.734,1.935-7.376,8.789c-0.024,0.257-0.4,0.257-0.424,0
			c-0.641-6.854-1.678-8.008-7.376-8.789c-0.245-0.034-0.245-0.388,0-0.422c5.697-0.781,6.734-1.935,7.376-8.789
			c0.024-0.257,0.4-0.257,0.424,0c0.641,6.854,1.678,8.008,7.376,8.789C400.379,94.978,400.379,95.333,400.134,95.366z"/>
		<path style="fill:#FFFFFF;" d="M168.912,274.179c-9.339,1.281-11.039,3.172-12.09,14.407c-0.039,0.421-0.656,0.421-0.695,0
			c-1.051-11.235-2.751-13.126-12.09-14.407c-0.402-0.055-0.402-0.636,0-0.691c9.339-1.281,11.039-3.172,12.09-14.407
			c0.039-0.421,0.656-0.421,0.695,0c1.051,11.235,2.751,13.126,12.09,14.407C169.315,273.543,169.315,274.124,168.912,274.179z"/>
		<path style="fill:#FFFFFF;" d="M459.611,365.073c-6.22,0.853-7.352,2.113-8.052,9.595c-0.026,0.28-0.437,0.28-0.463,0
			c-0.7-7.482-1.832-8.742-8.052-9.595c-0.268-0.037-0.268-0.424,0-0.46c6.22-0.853,7.352-2.113,8.052-9.595
			c0.026-0.28,0.437-0.28,0.463,0c0.7,7.482,1.832,8.742,8.052,9.595C459.879,364.649,459.879,365.036,459.611,365.073z"/>
		<g>
			<circle style="fill:#FFFFFF;" cx="180.681" cy="85.216" r="37.488"/>
			<polygon style="fill:#FFFFFF;" points="204.642,106.637 217.785,136.107 193.165,115.811 			"/>
			<g>
				<path style="fill:#3B6E56;" d="M191.18,66.97c2.507,2.23,3.765,5.301,3.765,9.211c0,3.871-1.244,6.824-3.736,8.857
					c-2.488,2.035-5.786,3.052-9.893,3.052l-0.236,4.561h-7.285l-0.299-10.072h2.666c3.438,0,6.084-0.453,7.941-1.362
					c1.856-0.909,2.782-2.567,2.782-4.976c0-1.738-0.501-3.119-1.509-4.149c-1.008-1.025-2.382-1.538-4.117-1.538
					c-1.818,0-3.23,0.494-4.238,1.48c-1.003,0.988-1.509,2.35-1.509,4.088h-7.82c-0.039-2.411,0.472-4.563,1.543-6.458
					c1.066-1.897,2.632-3.377,4.706-4.443c2.078-1.068,4.513-1.601,7.319-1.601C185.365,63.622,188.672,64.738,191.18,66.97z
					 M173.702,105.417c-0.969-0.926-1.451-2.083-1.451-3.464c0-1.384,0.482-2.538,1.451-3.466c0.969-0.928,2.203-1.391,3.703-1.391
					c1.461,0,2.666,0.463,3.616,1.391c0.945,0.928,1.422,2.083,1.422,3.466c0,1.381-0.477,2.538-1.422,3.464
					c-0.95,0.93-2.155,1.393-3.616,1.393C175.906,106.811,174.672,106.348,173.702,105.417z"/>
			</g>
		</g>
		<g>
			<path style="fill:#B5915F;" d="M385.17,299.761c2.13,5.403,5.142,6.701,7.376,6.805v2.13c-2.909-0.207-7.376-0.312-11.427-0.312
				c-5.506,0-10.598,0.105-13.61,0.312v-2.13c5.142-0.207,7.532-0.987,7.532-3.948c0-1.246-0.416-2.857-1.247-4.987l-6.545-17.453
				h-25.661l-4.364,11.272c-1.454,3.688-2.13,6.545-2.13,8.727c0,4.623,3.169,6.233,9.247,6.389v2.13
				c-4.051-0.207-8.519-0.312-12.259-0.312c-3.584,0-5.817,0.105-7.947,0.312v-2.13c2.753-0.623,5.921-2.857,8.363-9.247
				l25.038-64.465h1.714L385.17,299.761z M354.574,246.308l-12.207,31.74h24.102L354.574,246.308z"/>
		</g>
		<g>
			<path style="fill:#B5915F;" d="M408.119,339.855h22.441c13.298,0,15.947-5.091,17.453-19.895h2.442
				c-0.208,2.234-0.364,5.298-0.364,8.726c0,2.649,0.259,8.208,0.779,13.61c-7.896-0.312-18.752-0.312-26.491-0.312
				c-8.416,0-18.181,0-26.285,0.312v-2.13l44.361-70.751h-22.336c-13.298,0-15.947,5.091-17.454,19.896h-2.441
				c0.207-2.234,0.311-5.298,0.311-8.727c0-2.649-0.207-8.208-0.727-13.61c7.844,0.312,18.701,0.312,26.492,0.312
				c8.051,0,18.077,0,25.817-0.312v2.13L408.119,339.855z"/>
		</g>
		<rect x="392.546" y="295.651" style="fill:#B5915F;" width="18.721" height="4.192"/>
		<g>
			<path style="fill:#FFEED4;" d="M98.168,149.298c0.507,1.307,1.2,1.72,1.72,1.747v0.547c-1.08-0.053-2.653-0.08-4.147-0.08
				c-1.693,0-3.253,0.027-4.16,0.08v-0.547c1.307-0.053,1.92-0.253,1.92-1c0-0.32-0.107-0.747-0.32-1.293l-1.64-4.48h-5.934
				l-0.733,1.893c-0.52,1.333-0.747,2.307-0.747,3.027c0,1.44,0.933,1.813,2.427,1.853v0.547c-1.24-0.053-2.267-0.08-3.4-0.08
				c-0.8,0-1.547,0.027-2.093,0.08v-0.547c0.8-0.147,1.6-0.853,2.373-2.867l6.214-15.974c0.293,0.027,0.613,0.04,0.947,0.04
				c0.32,0,0.653-0.013,0.947-0.04L98.168,149.298z M88.635,136.378l-2.827,7.347h5.534L88.635,136.378z"/>
		</g>
		<g>
			<path style="fill:#FFEED4;" d="M91.908,178.979c5.107,0.387,6.867,2.653,6.867,4.867c0,3.44-2.853,5.294-7.534,5.294
				c-0.853,0-2.547-0.08-4.867-0.08c-1.613,0-3.28,0.027-4.2,0.08v-0.547c1.733-0.08,2.04-0.36,2.04-2.347v-13.547
				c0-1.987-0.32-2.267-2.04-2.347v-0.547c0.92,0.053,2.613,0.08,4.147,0.08c1.787,0,3.6-0.053,4.293-0.053
				c4.507,0,6.747,1.773,6.747,4.293c0,1.933-1.64,4.093-5.454,4.8V178.979z M88.561,172.699v6.174h1.173
				c2.573,0,3.2-2.08,3.2-4.453c0-2.68-0.747-4.067-2.68-4.067C88.855,170.352,88.561,170.819,88.561,172.699z M94.242,183.726
				c0-2.773-1.293-4.387-4.533-4.387h-1.147v6.907c0,1.907,0.32,2.267,1.88,2.267C93.108,188.513,94.242,186.793,94.242,183.726z"/>
		</g>
		<g>
			<path style="fill:#FFEED4;" d="M96.882,208.74c0.2,0.16,0.387,0.24,0.533,0.24c0.387,0,0.6-0.507,0.707-1.627h0.627
				c-0.08,1.4-0.107,3.28-0.107,6.614h-0.64c-0.293-2.507-0.64-3.827-2.053-4.947c-0.907-0.88-2.16-1.347-3.453-1.347
				c-3.92,0-5.44,4.573-5.44,9.4c0,4.893,1.64,9.334,5.547,9.334c1.2,0,2.52-0.44,3.4-1.32c1.413-1.093,1.747-2.613,2-5.28h0.64
				c0,3.467,0.027,5.427,0.107,6.88h-0.627c-0.107-1.12-0.28-1.613-0.667-1.613c-0.16,0-0.347,0.08-0.573,0.227
				c-1.333,0.947-2.693,1.773-5.04,1.773c-5.787,0-9.64-3.64-9.64-9.894c0-6.107,3.987-10.214,9.667-10.214
				C94.268,206.967,95.682,207.82,96.882,208.74z"/>
		</g>
		<g>
			<path style="fill:#FFFFFF;" d="M141.507,138.089h-33.3c-1.625,0-2.942-1.317-2.942-2.942v0c0-1.625,1.317-2.942,2.942-2.942h33.3
				c1.625,0,2.942,1.317,2.942,2.942v0C144.45,136.772,143.132,138.089,141.507,138.089z"/>
			<path style="fill:#FFEED4;" d="M163.512,146.182h-56.928c-0.729,0-1.319-0.591-1.319-1.319l0,0c0-0.729,0.591-1.319,1.319-1.319
				h56.928c0.729,0,1.319,0.591,1.319,1.319l0,0C164.832,145.591,164.241,146.182,163.512,146.182z"/>
			<path style="fill:#FFEED4;" d="M163.512,152.21h-56.928c-0.729,0-1.319-0.591-1.319-1.319l0,0c0-0.729,0.591-1.319,1.319-1.319
				h56.928c0.729,0,1.319,0.591,1.319,1.319l0,0C164.832,151.62,164.241,152.21,163.512,152.21z"/>
			<path style="fill:#FFEED4;" d="M163.512,158.239h-56.928c-0.729,0-1.319-0.591-1.319-1.319l0,0c0-0.729,0.591-1.319,1.319-1.319
				h56.928c0.729,0,1.319,0.591,1.319,1.319l0,0C164.832,157.648,164.241,158.239,163.512,158.239z"/>
		</g>
		<g>
			<path style="fill:#FFFFFF;" d="M141.507,175.69h-33.3c-1.625,0-2.942-1.317-2.942-2.942v0c0-1.625,1.317-2.942,2.942-2.942h33.3
				c1.625,0,2.942,1.317,2.942,2.942v0C144.45,174.373,143.132,175.69,141.507,175.69z"/>
			<path style="fill:#FFEED4;" d="M163.512,183.783h-56.928c-0.729,0-1.319-0.591-1.319-1.319v0c0-0.729,0.591-1.319,1.319-1.319
				h56.928c0.729,0,1.319,0.591,1.319,1.319v0C164.832,183.193,164.241,183.783,163.512,183.783z"/>
			<path style="fill:#FFEED4;" d="M163.512,189.812h-56.928c-0.729,0-1.319-0.591-1.319-1.319l0,0c0-0.729,0.591-1.319,1.319-1.319
				h56.928c0.729,0,1.319,0.591,1.319,1.319l0,0C164.832,189.221,164.241,189.812,163.512,189.812z"/>
			<path style="fill:#FFEED4;" d="M163.512,195.84h-56.928c-0.729,0-1.319-0.591-1.319-1.319l0,0c0-0.729,0.591-1.319,1.319-1.319
				h56.928c0.729,0,1.319,0.591,1.319,1.319l0,0C164.832,195.249,164.241,195.84,163.512,195.84z"/>
		</g>
		<g>
			<path style="fill:#FFFFFF;" d="M141.507,212.851h-33.3c-1.625,0-2.942-1.317-2.942-2.942l0,0c0-1.625,1.317-2.942,2.942-2.942
				h33.3c1.625,0,2.942,1.317,2.942,2.942l0,0C144.45,211.534,143.132,212.851,141.507,212.851z"/>
			<path style="fill:#FFEED4;" d="M163.512,220.944h-56.928c-0.729,0-1.319-0.591-1.319-1.319l0,0c0-0.729,0.591-1.319,1.319-1.319
				h56.928c0.729,0,1.319,0.591,1.319,1.319l0,0C164.832,220.354,164.241,220.944,163.512,220.944z"/>
			<path style="fill:#FFEED4;" d="M163.512,226.973h-56.928c-0.729,0-1.319-0.591-1.319-1.319v0c0-0.729,0.591-1.319,1.319-1.319
				h56.928c0.729,0,1.319,0.591,1.319,1.319v0C164.832,226.382,164.241,226.973,163.512,226.973z"/>
			<path style="fill:#FFEED4;" d="M163.512,233.001h-56.928c-0.729,0-1.319-0.591-1.319-1.319l0,0c0-0.729,0.591-1.319,1.319-1.319
				h56.928c0.729,0,1.319,0.591,1.319,1.319l0,0C164.832,232.411,164.241,233.001,163.512,233.001z"/>
		</g>
		<g>
			<path style="fill:#3B6E56;" d="M250.331,179.062l-3.2-3.564l-7.536,4.026c-7.259,3.878-12.95,10.15-16.107,17.75l-10.62,25.566
				c0,0,18.27,2.785,28.297,10.292L250.331,179.062z"/>
			<path style="fill:#26314A;" d="M251.91,267.527c0,0-21.448-4.015-44.587-7.072c-14.56-1.923-27.409,9.629-26.961,24.309
				c0.594,19.447,2.288,46.711,6.861,72.903h34.831l0.383-53.203l57.432-15.693L251.91,267.527z"/>
			<g>
				<path style="fill:#B5915F;" d="M194.517,403.885c0-2.221-0.221-2.221-0.221-4.442c0-2.221,0.572-2.221,0.572-4.442
					c0-2.217-0.21-2.217-0.21-4.434c0-2.217-0.461-2.217-0.461-4.433c0-2.216,0.263-2.216,0.263-4.433
					c0-2.217,0.32-2.217,0.32-4.434c0-2.217-0.178-2.217-0.178-4.434h22.668c0,2.217,0.178,2.217,0.178,4.434
					c0,2.217-0.32,2.217-0.32,4.434c0,2.216-0.263,2.216-0.263,4.433c0,2.217,0.461,2.217,0.461,4.433
					c0,2.217,0.21,2.217,0.21,4.434c0,2.221-0.572,2.221-0.572,4.442c0,2.221,0.221,2.221,0.221,4.442H194.517z"/>
				<g>
					<path style="fill:#3B4C73;" d="M194.844,393.914c0.014,0.302,0.023,0.642,0.023,1.087c0,0.277-0.009,0.519-0.025,0.735
						c7.542,0.714,15.132,0.693,22.67-0.061c0.013-0.202,0.022-0.42,0.022-0.674c0-0.474-0.011-0.834-0.026-1.148
						C209.973,394.607,202.384,394.628,194.844,393.914z"/>
					<path style="fill:#3B4C73;" d="M194.65,390.307c0.002,0.09,0.007,0.162,0.007,0.26c0,0.701,0.022,1.17,0.051,1.568
						c7.539,0.723,15.128,0.711,22.666-0.034c-0.027-0.391-0.048-0.853-0.048-1.534c0-0.107-0.006-0.186-0.008-0.283
						C209.779,391.025,202.19,391.033,194.65,390.307z"/>
					<path style="fill:#3B4C73;" d="M194.391,383.32c-0.057,0.602-0.131,1.05-0.17,1.806c7.537,0.754,15.125,0.775,22.665,0.061
						c0.037-0.783,0.113-1.235,0.17-1.839C209.518,384.073,201.929,384.063,194.391,383.32z"/>
					<path style="fill:#3B4C73;" d="M194.582,379.75c-0.062,0.452-0.115,0.97-0.121,1.81c7.539,0.739,15.128,0.743,22.668,0.014
						c0.005-0.856,0.059-1.377,0.122-1.834C209.712,380.478,202.122,380.481,194.582,379.75z"/>
				</g>
				<path style="fill:#63451D;" d="M189.329,397.243v-0.664c0-2.217,1.686-4.071,3.893-4.281l0.209-0.02
					c2.034-0.193,3.848,1.121,4.457,3.071c0.38,1.216,0.892,2.382,1.545,3.494c1.315,2.239,3.958,3.316,6.471,2.66
					c4.504-1.175,8.678-2.856,12.482-5.101c1.032-0.609,2.298,0.4,1.871,1.52c-0.267,0.7-0.737,1.36-1.551,1.751
					c3.445,2.584,3.923,10.334,3.541,18.181h-62.007c0.002-0.034,0.004-0.068,0.006-0.102c0.351-5.312,4.708-9.492,10.019-9.856
					c0.718-0.049,1.46-0.066,2.221-0.058c2.007,0.022,3.964-0.59,5.57-1.795c2.402-1.802,5.243-3.33,8.441-4.635
					C188.198,400.717,189.329,399.081,189.329,397.243z"/>
				<path style="fill:#26314A;" d="M158.038,417.855v7.942h20.876c2.577,0,5.144-0.328,7.638-0.976l15.024-3.904v4.88h22.2v-7.942
					H158.038z"/>
			</g>
			<path style="fill:#26314A;" d="M186.225,357.666h37.237c1.074,0,1.879,0.984,1.667,2.036l-1.401,6.94l-0.549,4.624
				c-0.243,2.052-1.983,3.597-4.049,3.597h-29.796c-2.221,0-3.927-1.966-3.614-4.165l0.548-3.847l-1.728-7.037
				C184.27,358.722,185.098,357.666,186.225,357.666z"/>
			<path style="fill:#EB836A;" d="M242.915,233.131c0,0-12.369,33.107-33.109,30.568c-18.564-2.273-19.521-38.419-19.521-38.419
				l33.109-4.562L242.915,233.131z"/>
			<path style="fill:#26314A;" d="M223.395,220.718l-10.526,1.45v12.011c10.615,5.881,17.356,16.379,10.488,26.048
				c12.456-8.11,19.558-27.096,19.558-27.096L223.395,220.718z"/>
			<path style="fill:#E66D1E;" d="M321.668,263.838l2.562,16.055c2.717,17.023-7.964,33.124-24.311,37.482
				c-1.744,0.465-3.55,0.653-5.355,0.678l-51.649,0.697c0,0-7.62,14.612-12.805,11.741L185.719,370.7l-29.244-18.583l40.958-53.334
				c9.903-12.625,24.312-20.923,40.202-23.152L321.668,263.838z"/>
			<polygon style="fill:#26314A;" points="185.719,370.7 193.603,363.558 158.142,349.946 156.475,352.116 			"/>
			<g>
				<path style="fill:#26314A;" d="M175.534,353.717c1.513-2.452,3.292-4.827,5.497-6.702c2.212-1.852,4.548-3.346,6.659-5.134
					c2.141-1.751,4.08-3.744,5.913-5.835l5.611-6.218c3.747-4.136,7.499-8.274,11.054-12.557c1.797-2.12,3.392-4.416,5.357-6.481
					c1.976-2.052,4.338-3.734,6.924-4.97l0.001,0c0.051-0.025,0.104-0.04,0.158-0.047l0.03-0.003
					c6.549-0.769,13.056-1.868,19.475-3.359c6.418-1.496,12.732-3.414,18.943-5.615c6.199-2.235,12.305-4.763,18.196-7.745
					c2.947-1.486,5.839-3.082,8.677-4.77l2.12-1.279c0.339-0.211,0.74-0.432,1.025-0.634c0.279-0.206,0.311-0.377,0.224-0.739
					c-0.087-0.33-0.335-0.795-0.271-1.399c0.04-0.588,0.366-1.138,0.765-1.47c0.802-0.684,1.736-0.897,2.646-0.763l0.002,0
					l-0.216,0.468c-1.66-2.847-2.151-6.424-1.223-9.748l0.002-0.007c0.131-0.469,0.618-0.744,1.087-0.613
					c0.469,0.131,0.744,0.618,0.613,1.087c-0.009,0.032-0.022,0.068-0.034,0.098c-1.125,2.736-1.114,6.034,0.138,8.884
					c0.058,0.131,0.017,0.28-0.089,0.366l-0.127,0.102l-0.002,0.001c-0.682,0.537-1.374,0.85-1.853,1.234
					c-0.484,0.39-0.717,0.632-0.6,1.647c0.013,0.234,0.004,0.515-0.097,0.797c-0.107,0.286-0.323,0.504-0.512,0.649
					c-0.388,0.28-0.717,0.454-1.077,0.685l-2.119,1.305c-2.832,1.731-5.741,3.328-8.658,4.914
					c-5.861,3.117-11.916,5.891-18.142,8.223c-6.218,2.358-12.615,4.231-19.094,5.723c-6.478,1.498-13.055,2.586-19.677,3.168
					l0.187-0.05l-0.001,0c-2.507,1.048-4.809,2.601-6.759,4.516c-1.957,1.918-3.608,4.191-5.429,6.318
					c-3.615,4.275-7.448,8.332-11.131,12.525l-5.558,6.257c-1.832,2.115-3.778,4.15-5.857,6.055c-2.072,1.911-4.41,3.521-6.29,5.473
					c-1.92,1.911-3.282,4.252-4.313,6.757c-0.258,0.627-0.975,0.926-1.602,0.668c-0.627-0.258-0.926-0.975-0.668-1.602
					C175.467,353.836,175.501,353.771,175.534,353.717z"/>
			</g>
			<path style="fill:#26314A;" d="M257.11,272.897l-0.233,0.442c9.184,6.332,58.362-4.065,66.578,1.696l0,0l-1.787-11.197
				L257.11,272.897z"/>
			<path style="fill:#FFFFFF;" d="M309.132,182.612c-6.411-5.847-26.067-13.311-38.774-15.033c0,0-12.845,3.269-23.236,7.923
				c-4.619,2.069-7.989,6.178-9.128,11.109c-1.441,6.241-2.448,15.199,0.997,22.306c0,0-1.579,21.381,3.158,32.58
				c-1.579,7.753,0,15.648,0,15.648s-6.603-1.148-6.89,2.153c-0.179,2.063,3.846,6.369,10.465,10.115
				c7.072,4.002,15.362,5.259,23.371,3.885c12.027-2.063,33.822-5.326,51.098-5.274c7.962,0.024,6.422-8.594,2.332-12.443
				c-2.368-2.228-3.844-5.242-4.471-8.432l-4.126-20.974L309.132,182.612z"/>
			<g>
				<path style="fill:#EBD0A9;" d="M239.86,232.985c0.515,3.105,1.25,6.054,2.289,8.511c-0.015,0.073-0.025,0.146-0.039,0.219
					c25.175,2.625,50.581,2.245,75.69-1.121l-0.991-8.363C291.281,235.664,265.436,235.913,239.86,232.985z"/>
				<path style="fill:#EBD0A9;" d="M312.222,201.931l-1.33-8.316c-24.569,3.238-49.466,3.104-74.008-0.39
					c-0.278,2.741-0.327,5.651,0.047,8.508C261.908,205.176,287.231,205.246,312.222,201.931z"/>
				<path style="fill:#EBD0A9;" d="M315.306,221.221l-1.33-8.316c-24.947,3.335-50.216,3.447-75.181,0.302
					c-0.064,2.253-0.091,5.221,0.023,8.477C264.225,224.792,289.928,224.632,315.306,221.221z"/>
			</g>
			<path style="fill:#3B6E56;" d="M281.751,233.001c0,0,0.143-5.262,1.741-9.398c0.723-1.871,1.022-3.875,1.045-5.881
				c0.073-6.503,1.411-13.637,3.285-17.023c0.493-0.892,0.821-1.855,0.964-2.864c0.7-4.935,4.092-10.849,8.271-14.747
				c3.651-3.405,9.398-3.3,12.9,0.259c5.863,5.959,9.111,13.594,6.312,26.018c-0.414,1.836-0.215,3.752,0.437,5.518
				c2.457,6.656,1.139,12.035,0.195,14.55c-0.393,1.047-0.424,2.187-0.107,3.26c0.534,1.806,1.182,4.732,0.759,7.275l-33.778-2.639
				L281.751,233.001z"/>
			<g>
				<path style="fill:#26314A;" d="M287.495,229.097c0.142,0.158,0.664,0.347,1.136,0.437c0.499,0.091,1.015,0.166,1.545,0.208
					c1.057,0.077,2.136,0.093,3.215,0.096c2.16-0.011,4.33-0.122,6.504-0.192c2.173-0.113,4.352-0.173,6.547-0.18
					c1.098-0.002,2.201,0.028,3.313,0.12c1.116,0.08,2.236,0.23,3.397,0.573c0.449,0.133,0.706,0.605,0.573,1.054
					c-0.133,0.449-0.605,0.706-1.054,0.573c-0.031-0.009-0.061-0.02-0.09-0.032l-0.026-0.011c-1.81-0.769-4.022-0.963-6.144-1.089
					c-2.148-0.113-4.313-0.057-6.48-0.012l-6.518,0.271c-1.092,0.045-2.187,0.077-3.299,0.046c-0.555-0.002-1.12-0.037-1.696-0.099
					c-0.584-0.107-1.172-0.132-1.903-0.64l-0.005-0.003c-0.34-0.236-0.424-0.704-0.188-1.044c0.236-0.34,0.704-0.424,1.044-0.188
					C287.413,229.016,287.458,229.056,287.495,229.097z"/>
			</g>
			<g>
				<path style="fill:#26314A;" d="M287.75,224.637c0.983-0.432,1.955-0.977,2.892-1.539c0.929-0.583,1.848-1.186,2.707-1.862
					c0.849-0.685,1.7-1.373,2.432-2.166c0.737-0.782,1.409-1.621,1.891-2.527l0.008-0.015c0.205-0.385,0.683-0.531,1.068-0.326
					c0.385,0.205,0.531,0.683,0.326,1.068c-0.017,0.032-0.039,0.067-0.06,0.096c-1.423,1.942-3.16,3.425-4.968,4.785
					c-0.903,0.682-1.828,1.324-2.771,1.942c-0.94,0.629-1.88,1.223-2.864,1.829c-0.341,0.21-0.787,0.104-0.997-0.237
					c-0.21-0.341-0.104-0.787,0.237-0.997c0.028-0.017,0.056-0.032,0.085-0.045L287.75,224.637z"/>
			</g>
			<path style="fill:#3B6E56;" d="M270.358,167.579c0,0-8.95,2.279-17.952,5.739c0.861,5.701,4.131,11.652,10.385,11.904
				c7.7,0.311,16.303-7.281,17.532-14.923c0.032-0.201,0.042-0.398,0.066-0.598C276.832,168.733,273.396,167.991,270.358,167.579z"
				/>
			<g>
				<path style="fill:#EBD0A9;" d="M247.426,259.496l1.517,1.542c0.261,0.249,0.499,0.527,0.78,0.753l0.849,0.672
					c0.577,0.432,1.109,0.941,1.735,1.305l1.87,1.111l0.469,0.277l0.498,0.22l0.997,0.441c0.67,0.279,1.314,0.636,2.027,0.804
					l2.099,0.612c0.699,0.209,1.432,0.274,2.147,0.418c5.77,1.026,11.726,0.378,17.433-0.901c5.733-1.291,11.276-3.322,16.677-5.632
					l4.033-1.784l3.955-1.958c1.325-0.636,2.62-1.335,3.911-2.041l3.871-2.116l0.032-0.017c0.58-0.317,1.307-0.104,1.624,0.476
					c0.317,0.58,0.104,1.307-0.476,1.624c-0.02,0.011-0.043,0.022-0.063,0.032c-5.377,2.541-10.742,5.097-16.306,7.207
					c-5.549,2.122-11.213,3.991-17.043,5.215c-5.821,1.213-11.87,1.634-17.781,0.674c-2.964-0.426-5.822-1.441-8.543-2.701
					c-2.715-1.325-5.128-3.168-7.391-5.191c-0.309-0.276-0.335-0.75-0.059-1.059c0.276-0.309,0.75-0.335,1.059-0.059
					c0.012,0.01,0.023,0.021,0.033,0.032L247.426,259.496z"/>
			</g>
			<g>
				<path style="fill:#FFFFFF;" d="M195.357,185.042c0,0,8.325-10.717,29.855-6.985v17.416L195.357,185.042z"/>
				<path style="fill:#FFEED4;" d="M182.793,190.229l-2.363-14.732c0,0,11.196-0.694,14.928,9.544
					c4.784-3.541,23.453-9.355,32.439,0l7.458,54.926l-2.291,1.014L182.793,190.229z"/>
				<g>
					<path style="fill:#CC4E4E;" d="M233.23,242.823c-9.389-5.235-20.258-5.235-28.133,0c-2.674-18.492-5.349-36.985-8.023-55.477
						c7.875-5.235,18.744-5.235,28.133,0C227.881,205.838,230.555,224.331,233.23,242.823z"/>
					<path style="fill:#CC4E4E;" d="M201.843,242.823c-5.248-6.885-10.823-8.84-14.429-5.06c-2.9-18.836-5.124-36.641-8.023-55.477
						c3.606-3.78,9.181-1.825,14.429,5.06C196.72,206.182,198.944,223.987,201.843,242.823z"/>
					<polygon style="fill:#26314A;" points="193.82,187.346 197.074,187.346 205.097,242.823 201.843,242.823 					"/>
				</g>
			</g>
			<g>
				<path style="fill:#B5915F;" d="M133.516,390.757c1.324-1.783,1.147-1.914,2.471-3.697c1.324-1.783,1.784-1.441,3.108-3.224
					c1.322-1.78,1.153-1.905,2.476-3.685c1.322-1.779,0.952-2.054,2.274-3.834c1.322-1.779,1.533-1.622,2.854-3.401
					c1.322-1.78,1.579-1.589,2.901-3.368c1.322-1.78,1.179-1.886,2.501-3.665l18.196,13.519c-1.322,1.78-1.179,1.886-2.501,3.665
					c-1.322,1.78-1.579,1.589-2.901,3.368c-1.322,1.779-1.533,1.622-2.854,3.401c-1.322,1.779-0.952,2.054-2.274,3.834
					c-1.322,1.78-1.153,1.905-2.476,3.685c-1.324,1.783-1.784,1.441-3.108,3.224c-1.324,1.783-1.147,1.914-2.471,3.697
					L133.516,390.757z"/>
				<g>
					<path style="fill:#3B4C73;" d="M139.725,382.95c-0.169,0.251-0.364,0.53-0.629,0.887c-0.165,0.222-0.317,0.411-0.458,0.576
						c5.628,5.071,11.733,9.581,18.234,13.471c0.131-0.155,0.269-0.324,0.42-0.527c0.283-0.38,0.488-0.676,0.664-0.937
						C151.455,392.528,145.351,388.019,139.725,382.95z"/>
					<path style="fill:#3B4C73;" d="M141.72,379.938c-0.052,0.073-0.091,0.134-0.149,0.213c-0.418,0.562-0.68,0.952-0.894,1.289
						c5.621,5.076,11.72,9.593,18.214,13.49c0.211-0.33,0.47-0.713,0.876-1.26c0.064-0.086,0.107-0.153,0.163-0.232
						C153.436,389.538,147.339,385.018,141.72,379.938z"/>
					<path style="fill:#3B4C73;" d="M145.679,374.175c-0.405,0.45-0.732,0.765-1.213,1.348c5.6,5.1,11.679,9.643,18.157,13.566
						c0.496-0.607,0.827-0.924,1.234-1.375C157.373,383.801,151.287,379.267,145.679,374.175z"/>
					<path style="fill:#3B4C73;" d="M147.961,371.424c-0.319,0.326-0.67,0.71-1.177,1.381c5.611,5.089,11.701,9.619,18.188,13.53
						c0.515-0.684,0.869-1.07,1.192-1.399C159.673,381.031,153.578,376.507,147.961,371.424z"/>
				</g>
				<path style="fill:#63451D;" d="M133.312,382.333l0.396-0.533c1.322-1.78,3.781-2.262,5.678-1.114l0.18,0.109
					c1.748,1.058,2.42,3.195,1.746,5.123c-0.421,1.203-0.705,2.444-0.844,3.726c-0.28,2.582,1.2,5.022,3.608,5.994
					c4.316,1.743,8.669,2.883,13.062,3.349c1.191,0.126,1.606,1.691,0.596,2.336c-0.632,0.403-1.403,0.652-2.289,0.48
					c1.224,4.128-3.014,10.635-8.001,16.706L97.669,381.53c0.022-0.026,0.044-0.052,0.066-0.078c3.449-4.054,9.44-4.812,13.92-1.936
					c0.605,0.389,1.211,0.818,1.817,1.278c1.598,1.215,3.534,1.891,5.541,1.881c3.003-0.014,6.195,0.454,9.54,1.314
					C130.333,384.446,132.216,383.808,133.312,382.333z"/>
				<path style="fill:#26314A;" d="M95.903,380.217l-4.737,6.375l16.757,12.45c2.069,1.537,4.325,2.804,6.714,3.772l14.388,5.826
					l-2.91,3.917l17.82,13.24l4.737-6.375L95.903,380.217z"/>
			</g>
			<g>
				<path style="fill:#26314A;" d="M221.702,302.659c0.567,1.258,1.349,2.407,2.265,3.465c0.883,1.082,1.92,2.031,2.999,2.929
					c2.194,1.766,4.707,3.139,7.319,4.339c0.247,0.112,0.357,0.403,0.245,0.651c-0.104,0.229-0.364,0.339-0.598,0.265
					c-2.806-0.903-5.522-2.232-7.892-4.089c-1.193-0.916-2.273-1.991-3.202-3.187c-0.918-1.193-1.705-2.55-2.085-4.05
					c-0.068-0.269,0.095-0.542,0.364-0.61c0.24-0.061,0.483,0.062,0.581,0.281L221.702,302.659z"/>
			</g>
			<g>
				<path style="fill:#26314A;" d="M218.997,306.046c0.209,0.985,0.322,1.965,0.459,2.953c0.13,0.988,0.323,1.973,0.578,2.944
					c0.264,0.968,0.545,1.941,0.912,2.888c0.362,0.948,0.766,1.887,1.225,2.809c0.035,0.07,0.007,0.156-0.064,0.191
					c-0.061,0.031-0.134,0.013-0.175-0.039c-0.65-0.814-1.243-1.682-1.761-2.596c-0.513-0.916-0.995-1.861-1.371-2.85
					c-0.386-0.986-0.711-1.999-0.972-3.033c-0.254-1.034-0.404-2.102-0.327-3.172c0.03-0.417,0.392-0.73,0.808-0.7
					c0.344,0.025,0.617,0.276,0.686,0.597L218.997,306.046z"/>
			</g>
			<g>
				<path style="fill:#26314A;" d="M286.799,277.351c0.929,1.088,1.946,2.094,3,3.058c1.071,0.945,2.163,1.87,3.317,2.712
					c2.284,1.716,4.699,3.263,7.243,4.554c0.37,0.188,0.517,0.64,0.33,1.009s-0.64,0.517-1.009,0.33
					c-0.028-0.014-0.059-0.033-0.084-0.049c-2.405-1.639-4.769-3.31-7.062-5.079c-1.133-0.9-2.279-1.784-3.392-2.711l-3.383-2.745
					l-0.007-0.006c-0.323-0.262-0.372-0.736-0.11-1.059c0.262-0.323,0.736-0.372,1.059-0.11
					C286.736,277.283,286.77,277.318,286.799,277.351z"/>
			</g>
			<g>
				<path style="fill:#26314A;" d="M291.463,276.678c1.227,0.63,2.549,1.009,3.888,1.28c1.337,0.281,2.687,0.5,4.044,0.654
					c2.715,0.296,5.46,0.304,8.164,0.009c0.412-0.045,0.782,0.253,0.827,0.664c0.045,0.412-0.253,0.782-0.664,0.827
					c-0.019,0.002-0.041,0.003-0.06,0.004c-2.813,0.082-5.621-0.06-8.396-0.426c-1.388-0.177-2.768-0.418-4.133-0.724
					c-1.364-0.316-2.716-0.651-4.123-0.861c-0.415-0.06-0.704-0.445-0.644-0.86c0.06-0.415,0.445-0.704,0.86-0.644
					C291.307,276.613,291.392,276.642,291.463,276.678z"/>
			</g>
			<path style="fill:#EB836A;" d="M274.69,169.109c3.693,5.121-10.742,15.532-14.436,10.411l-11.95-16.57l14.436-10.411
				L274.69,169.109z"/>
			<path style="fill:#26314A;" d="M263.764,161.365c-2.881,1.251-5.685,2.68-8.391,4.275c-0.684,0.403-1.333,0.866-1.942,1.375
				c-0.472,0.394-0.941,0.832-1.163,1.419c0.001,0.006,0.001,0.011,0.002,0.017l2.907,4.03c1.289,1.787,4.072,1.81,5.193-0.087
				c0.007-0.013,0.015-0.025,0.022-0.038c0.29-0.506,0.442-1.087,0.769-1.571c0.499-0.739,1.337-1.16,2.035-1.715
				c2.203-1.755,2.902-5.142,1.573-7.625L263.764,161.365z"/>
			<path style="fill:#EB836A;" d="M236.049,136.719l2.727,13.708c-0.789,12.703,2.297,19.449,13.277,19.736
				c10.98,0.287,19.018-14.425,19.018-14.425l-7.177-19.88L236.049,136.719z"/>
			<circle style="opacity:0.63;fill:#CC4E4E;" cx="256.36" cy="156.972" r="3.839"/>
			<path style="fill:#63451D;" d="M276.617,135.619l-1.291-1.132c0.588-1.341,0.839-2.864,0.62-4.467
				c-0.477-3.492-3.217-6.365-6.684-6.997c-0.945-0.172-1.865-0.179-2.74-0.048c-1.341,0.202-2.656-0.431-3.237-1.656
				c-1.493-3.147-4.827-5.341-8.709-5.341c-2.676,0-5.091,1.043-6.824,2.721c-1.15,1.114-2.728,1.73-4.3,1.425
				c-0.912-0.177-1.865-0.271-2.846-0.271c-6.758,0-12.236,4.386-12.236,9.796c0,5.41,5.478,9.796,12.236,9.796
				c0.747,0,1.475-0.062,2.185-0.165c1.643,0.738,3.619,1.169,5.745,1.169c3.316,0,6.26-1.051,8.151-2.678
				c1.374,1.935,3.494,3.181,5.88,3.181c0.075,0,0.148-0.01,0.223-0.013c-0.141,0.714-0.223,1.462-0.223,2.237
				c0,4.717,2.787,8.54,6.226,8.54c0.749,0,1.464-0.191,2.13-0.524l1.871,1.385l4.863-6.322
				C280.169,142.992,279.714,138.337,276.617,135.619z"/>
			<ellipse style="fill:#26314A;" cx="244.123" cy="149.047" rx="1.974" ry="2.998"/>
			<ellipse style="fill:#26314A;" cx="254.386" cy="149.047" rx="1.974" ry="2.998"/>
			<path style="fill:#26314A;" d="M247.726,157.292h3.598c0.6,0,1.087,0.48,1.088,1.08c0.003,2.151-0.259,6.767-2.556,6.767
				c-2.258,0-2.99-4.462-3.213-6.657C246.578,157.844,247.084,157.292,247.726,157.292z"/>
			<path style="fill:#523918;" d="M240.627,143.978c0.136-0.724,0.652-1.248,1.205-1.581c0.564-0.336,1.23-0.479,1.891-0.425
				c0.654,0.072,1.317,0.308,1.803,0.744c0.491,0.426,0.82,0.964,1.008,1.52c0.089,0.262-0.052,0.547-0.314,0.636
				c-0.194,0.066-0.4,0.006-0.53-0.136l-0.029-0.032c-0.642-0.701-1.285-1.17-2.054-1.187c-0.374-0.023-0.767,0.033-1.131,0.166
				c-0.366,0.134-0.678,0.35-0.907,0.609l-0.09,0.102c-0.18,0.203-0.49,0.222-0.693,0.042
				C240.65,144.318,240.597,144.142,240.627,143.978z"/>
			<path style="fill:#523918;" d="M256.942,144.292c-0.23-0.26-0.542-0.476-0.907-0.609c-0.364-0.133-0.757-0.189-1.131-0.166
				c-0.769,0.017-1.412,0.486-2.054,1.187l-0.029,0.032c-0.187,0.204-0.504,0.218-0.708,0.031c-0.151-0.138-0.198-0.348-0.136-0.531
				c0.188-0.556,0.517-1.094,1.008-1.52c0.486-0.436,1.149-0.672,1.803-0.744c0.661-0.053,1.327,0.089,1.891,0.425
				c0.553,0.333,1.069,0.857,1.205,1.581c0.05,0.266-0.125,0.523-0.392,0.573c-0.176,0.033-0.347-0.032-0.458-0.157L256.942,144.292
				z"/>
			
				<ellipse transform="matrix(0.672 -0.7406 0.7406 0.672 -24.6687 250.4225)" style="fill:#EB836A;" cx="270.358" cy="153.059" rx="6.338" ry="4.958"/>
			<g>
				<g>
					<path style="fill:#CC4E4E;" d="M249.256,147.414c-0.13,1.05-0.192,2.1-0.225,3.15l-0.016,0.787
						c0.002,0.217,0.032,0.624-0.166,0.945c-0.176,0.32-0.482,0.543-0.817,0.654c-0.396,0.097-0.547,0.099-0.8,0.156
						c-0.454,0.115-0.87,0.344-1.131,0.624c-0.122,0.141-0.206,0.293-0.196,0.407c-0.016,0.114,0.032,0.2,0.13,0.315
						c0.223,0.219,0.665,0.39,1.129,0.445c0.465,0.067,0.96,0.072,1.459,0.061l0.034-0.001c0.273-0.006,0.5,0.21,0.506,0.484
						c0.006,0.27-0.205,0.494-0.473,0.506l-0.831,0.037c-0.284-0.019-0.564-0.023-0.852-0.073c-0.564-0.09-1.183-0.247-1.715-0.767
						c-0.251-0.262-0.458-0.698-0.378-1.111c0.046-0.416,0.273-0.728,0.505-0.963c0.488-0.462,1.08-0.656,1.648-0.76l0.755-0.081
						c0.169-0.034,0.312-0.151,0.394-0.29c0.091-0.139,0.083-0.286,0.081-0.587l-0.016-0.787c-0.033-1.05-0.095-2.1-0.225-3.15
						c-0.041-0.331,0.194-0.633,0.525-0.674c0.331-0.041,0.633,0.194,0.674,0.525C249.262,147.315,249.261,147.367,249.256,147.414z
						"/>
				</g>
				<g>
					<path style="fill:#CC4E4E;" d="M266.869,155.516c-0.151-0.957,0.093-1.927,0.527-2.75c0.437-0.829,1.052-1.548,1.779-2.133
						c0.73-0.575,1.579-1.055,2.584-1.182c0.254-0.023,0.506-0.052,0.774,0.007c0.267,0.017,0.523,0.116,0.774,0.242
						c0.267,0.093,0.441,0.33,0.657,0.501c0.171,0.207,0.299,0.444,0.442,0.671c0.147,0.233,0.077,0.542-0.156,0.689
						s-0.542,0.077-0.689-0.156c-0.016-0.025-0.029-0.052-0.04-0.079l-0.02-0.05c-0.271-0.679-0.894-1.002-1.654-0.938
						c-0.755,0.06-1.529,0.435-2.189,0.923c-0.663,0.494-1.241,1.12-1.653,1.835c-0.411,0.712-0.644,1.532-0.549,2.336
						c0.021,0.162-0.093,0.31-0.255,0.332C267.041,155.784,266.895,155.672,266.869,155.516z"/>
				</g>
				<g>
					<path style="fill:#CC4E4E;" d="M270.587,153.853l-0.455-3.467c-0.017-0.127,0.073-0.244,0.2-0.26
						c0.115-0.015,0.222,0.057,0.253,0.166l0.972,3.359c0.076,0.264-0.076,0.539-0.339,0.616c-0.264,0.076-0.539-0.076-0.616-0.339
						C270.595,153.903,270.59,153.877,270.587,153.853z"/>
				</g>
			</g>
			<path style="fill:#EB836A;" d="M281.751,233.001l-1.23,5.436l-45.453-22.104c0,0-5.454-7.655-13.492-9.76
				c-5.353-1.402-9.985-1.234-12.482-0.965c-1.125,0.121-1.967,1.076-1.967,2.207l0,0c0,1.141,0.865,2.097,2.001,2.21l8.62,0.854
				l4.019,4.115c0,0-8.665-2.476-15.282-1.166c-1.208,0.239-2.018,1.383-1.84,2.602l0,0c0.178,1.22,1.283,2.093,2.509,1.961
				c3.225-0.346,9.417-0.561,14.327,1.962c0,0-7.139-1.17-13.243-0.275c-1.103,0.162-1.881,1.17-1.795,2.282v0
				c0.09,1.175,1.114,2.056,2.29,1.97l5.141-0.376l8.469,2.62c0,0-6.956-0.333-12.596,1.764c-0.701,0.261-1.147,0.951-1.076,1.695v0
				c0.095,0.997,1.058,1.674,2.029,1.425l5.233-1.344l2.723-0.105c1.323-0.051,2.59,0.467,3.549,1.38
				c1.603,1.526,4.688,3.663,9.229,3.414c0,0,19.521,22.2,41.051,33.013c21.53,10.813,31.195-0.67,32.343-7.56
				c1.148-6.89,4.306-24.401,4.306-24.401C296.693,234.609,286.473,237.406,281.751,233.001z"/>
			<path style="fill:#CC4E4E;" d="M280.521,238.437l10.532,5.301c1.212,0.61,2.385-0.898,1.489-1.917
				C290.353,239.332,286.538,236.842,280.521,238.437z"/>
			<path style="fill:#26314A;" d="M309.132,235.853c7.081,0.574,8.708,2.392,8.421,4.115c-0.287,1.722-9.432,1.521-9.432,1.521
				L309.132,235.853z"/>
			<path style="fill:#CC4E4E;" d="M221.768,214.993c1.839,0.514,1.718-0.089,1.437-1.053s-5.456-3.061-5.456-3.061L221.768,214.993z
				"/>
			<g>
				<path style="fill:#EB836A;" d="M185.835,227.19l-0.212-1.737c-0.1-0.823,0.293-1.624,1.013-2.035
					c1.868-1.067,5.244-3.245,4.773-4.813c-0.646-2.153-6.961,2.112-6.961,2.112s8.845-6.705,7.006-9.361
					c-1.839-2.655-7.939,4.593-7.939,4.593c4.88-5.239,8.756-8.469,7.536-10.191s-5.167,1.292-8.612,4.952
					c0,0-0.325-4.178,2.36-5.838c0.795-0.492,1.1-1.502,0.78-2.38l0,0c-0.458-1.258-2.005-1.765-3.079-0.967
					c-1.617,1.203-3.682,3.617-4.797,8.395C173.612,219.969,179.376,226.903,185.835,227.19z"/>
				<path style="fill:#CC4E4E;" d="M183.516,215.95c-1.237,1.487-2.738,1.568-2.202,0c0.536-1.568,4.618-2.447,6.364-4.345
					C185.575,213.819,183.516,215.95,183.516,215.95z"/>
				<path style="fill:#CC4E4E;" d="M184.867,220.445c-1.488,0.869-2.548,0.771-1.141-0.515c1.407-1.286,4.732-2.641,5.479-3.487
					C186.795,218.774,186.006,219.78,184.867,220.445z"/>
				<path style="fill:#CC4E4E;" d="M182.439,210.711c-1.005,1.058-1.97,2.626-2.492,1.902c-0.523-0.724,2.947-5.222,2.947-5.222
					S182.56,209.412,182.439,210.711z"/>
			</g>
			<path style="fill:#E66D1E;" d="M156.816,350.221l30.181,17.874c1.862,1.102,1.99,3.749,0.244,5.027l-6.66,4.874l-3.063,3.203
				c-1.521,1.59-3.924,1.951-5.844,0.879l-23.631-13.193c-2.469-1.379-3.231-4.575-1.649-6.919l4.81-7.126l1.815-3.525
				C153.735,349.925,155.472,349.425,156.816,350.221z"/>
		</g>
		<g>
			
				<line style="fill:none;stroke:#FFFFFF;stroke-width:3.4306;stroke-linecap:round;stroke-linejoin:round;stroke-miterlimit:10;" x1="302.068" y1="113.436" x2="285.134" y2="126.41"/>
			
				<line style="fill:none;stroke:#FFFFFF;stroke-width:3.4306;stroke-linecap:round;stroke-linejoin:round;stroke-miterlimit:10;" x1="288.48" y1="99.827" x2="276.345" y2="115.617"/>
			
				<line style="fill:none;stroke:#FFFFFF;stroke-width:3.4306;stroke-linecap:round;stroke-linejoin:round;stroke-miterlimit:10;" x1="271.832" y1="90.199" x2="264.233" y2="108.507"/>
			
				<line style="fill:none;stroke:#FFFFFF;stroke-width:3.4306;stroke-linecap:round;stroke-linejoin:round;stroke-miterlimit:10;" x1="253.26" y1="85.208" x2="250.513" y2="105.951"/>
			
				<line style="fill:none;stroke:#FFFFFF;stroke-width:3.4306;stroke-linecap:round;stroke-linejoin:round;stroke-miterlimit:10;" x1="234.028" y1="85.193" x2="237.017" y2="108.03"/>
		</g>
	</g>
	
		<line style="fill:none;stroke:#B5915F;stroke-width:1.8563;stroke-miterlimit:10;" x1="40.188" y1="425.797" x2="459.812" y2="425.797"/>
</g>
</svg>
